<?xml version="1.0" encoding="utf-8"?>
<!-- Generator: Adobe Illustrator 23.0.6, SVG Export Plug-In . SVG Version: 6.00 Build 0)  -->
<svg version="1.1" xmlns="http://www.w3.org/2000/svg" xmlns:xlink="http://www.w3.org/1999/xlink" x="0px" y="0px"
	 viewBox="0 0 841.9 967.3" style="enable-background:new 0 0 841.9 967.3;" xml:space="preserve">
<style type="text/css">
	.st0{display:none;}
	.st1{display:inline;fill:url(#SVGID_1_);}
	.st2{fill:url(#SVGID_2_);stroke:#000000;stroke-miterlimit:10;}
	.st3{fill:#FFFFFF;}
</style>
<g id="_x36_eck" class="st0">
	<linearGradient id="SVGID_1_" gradientUnits="userSpaceOnUse" x1="89.9133" y1="153.4554" x2="750.3038" y2="813.8458">
		<stop  offset="8.207178e-03" style="stop-color:#3C5DA8"/>
		<stop  offset="0.2203" style="stop-color:#3C62AC"/>
		<stop  offset="0.5531" style="stop-color:#3C70B7"/>
		<stop  offset="0.9629" style="stop-color:#3E88C8"/>
		<stop  offset="1" style="stop-color:#3E8ACA"/>
	</linearGradient>
	<polygon class="st1" points="420.9,0 840.1,241.1 839.4,724.8 419.3,967.3 0.1,726.2 0.9,242.5 	"/>
</g>
<g id="bg">
	<linearGradient id="SVGID_2_" gradientUnits="userSpaceOnUse" x1="-31.3529" y1="31.3529" x2="873.2426" y2="935.9484">
		<stop  offset="8.207178e-03" style="stop-color:#3C5DA8"/>
		<stop  offset="0.2203" style="stop-color:#3C62AC"/>
		<stop  offset="0.5531" style="stop-color:#3C70B7"/>
		<stop  offset="0.9629" style="stop-color:#3E88C8"/>
		<stop  offset="1" style="stop-color:#3E8ACA"/>
	</linearGradient>
	<rect class="st2" width="841.9" height="967.3"/>
</g>
<g id="libravatar.org">
	<g>
		<path class="st3" d="M142.8,652.2v74.3h-12.4v-74.3H142.8z"/>
		<path class="st3" d="M169.7,660.3c0,1.1-0.2,2.1-0.6,3c-0.4,0.9-1,1.8-1.7,2.5c-0.7,0.7-1.6,1.3-2.5,1.7c-1,0.4-2,0.6-3.1,0.6
			c-1.1,0-2.1-0.2-3-0.6c-1-0.4-1.8-1-2.5-1.7c-0.7-0.7-1.3-1.5-1.7-2.5c-0.4-0.9-0.6-1.9-0.6-3c0-1.1,0.2-2.1,0.6-3.1
			c0.4-1,1-1.8,1.7-2.5c0.7-0.7,1.5-1.3,2.5-1.7c0.9-0.4,2-0.6,3-0.6c1.1,0,2.1,0.2,3.1,0.6c1,0.4,1.8,1,2.5,1.7
			c0.7,0.7,1.3,1.5,1.7,2.5C169.5,658.1,169.7,659.2,169.7,660.3z M168,675.2v51.3h-12.4v-51.3H168z"/>
		<path class="st3" d="M192.9,681.5c2.1-2.2,4.4-3.9,6.9-5.2c2.5-1.3,5.4-1.9,8.6-1.9c3,0,5.6,0.6,8,1.8c2.4,1.2,4.4,2.8,6.1,5
			c1.7,2.2,3,4.8,3.9,7.9c0.9,3.1,1.3,6.6,1.3,10.5c0,4.2-0.5,8-1.5,11.4c-1,3.4-2.5,6.3-4.4,8.7c-1.9,2.4-4.2,4.3-6.9,5.6
			c-2.7,1.3-5.7,2-9,2c-1.6,0-3-0.2-4.4-0.5c-1.3-0.3-2.5-0.8-3.6-1.3c-1.1-0.6-2.1-1.3-3-2.1c-0.9-0.8-1.8-1.7-2.6-2.7l-0.5,3.4
			c-0.2,0.9-0.5,1.5-1,1.9c-0.5,0.4-1.1,0.5-2,0.5h-8.1v-74.3h12.4V681.5z M192.9,713.2c1.4,1.7,2.9,2.9,4.6,3.6s3.4,1,5.2,1
			c1.9,0,3.6-0.3,5.1-1c1.5-0.7,2.8-1.8,3.9-3.2c1.1-1.5,1.9-3.3,2.5-5.5c0.6-2.2,0.8-4.9,0.8-8.1c0-5.6-0.9-9.7-2.8-12.2
			c-1.9-2.5-4.5-3.8-8-3.8c-2.4,0-4.4,0.5-6.2,1.6c-1.8,1.1-3.5,2.6-5,4.6V713.2z"/>
		<path class="st3" d="M249,684.1c1.6-3.1,3.5-5.5,5.7-7.2c2.2-1.8,4.8-2.6,7.8-2.6c2.4,0,4.3,0.5,5.7,1.5l-0.8,9.2
			c-0.2,0.6-0.4,1-0.7,1.3c-0.3,0.2-0.7,0.4-1.3,0.4c-0.5,0-1.2-0.1-2.2-0.2c-1-0.2-1.9-0.2-2.9-0.2c-1.4,0-2.6,0.2-3.6,0.6
			c-1.1,0.4-2,1-2.9,1.7s-1.6,1.7-2.2,2.7c-0.6,1.1-1.3,2.3-1.8,3.7v31.6h-12.4v-51.3h7.2c1.3,0,2.1,0.2,2.6,0.7s0.8,1.3,1,2.4
			L249,684.1z"/>
		<path class="st3" d="M272.8,682.4c5.9-5.4,13-8.1,21.3-8.1c3,0,5.7,0.5,8,1.5c2.4,1,4.4,2.4,6,4.1c1.6,1.8,2.9,3.8,3.7,6.3
			c0.9,2.4,1.3,5.1,1.3,8v32.4h-5.6c-1.2,0-2.1-0.2-2.7-0.5c-0.6-0.3-1.1-1.1-1.5-2.1l-1.1-3.7c-1.3,1.2-2.6,2.2-3.8,3.1
			c-1.2,0.9-2.5,1.6-3.8,2.2c-1.3,0.6-2.8,1.1-4.3,1.4c-1.5,0.3-3.2,0.5-5,0.5c-2.2,0-4.2-0.3-6-0.9c-1.8-0.6-3.4-1.5-4.8-2.6
			c-1.3-1.2-2.4-2.6-3.1-4.3c-0.7-1.7-1.1-3.8-1.1-6c0-1.3,0.2-2.6,0.6-3.9c0.4-1.3,1.1-2.5,2.1-3.7c1-1.2,2.3-2.3,3.8-3.3
			c1.6-1,3.5-1.9,5.8-2.7c2.3-0.8,4.9-1.4,8-1.9c3-0.5,6.5-0.8,10.4-0.9v-3c0-3.4-0.7-6-2.2-7.6c-1.5-1.6-3.6-2.5-6.4-2.5
			c-2,0-3.7,0.2-5,0.7c-1.3,0.5-2.5,1-3.5,1.6s-1.9,1.1-2.7,1.6c-0.8,0.5-1.7,0.7-2.7,0.7c-0.9,0-1.6-0.2-2.2-0.7
			c-0.6-0.5-1.1-1-1.4-1.6L272.8,682.4z M301.1,704.6c-3.6,0.2-6.6,0.5-9,0.9c-2.4,0.4-4.4,1-5.9,1.7c-1.5,0.7-2.5,1.5-3.1,2.5
			c-0.6,0.9-1,2-1,3c0,2.2,0.6,3.7,1.9,4.7s3,1.4,5,1.4c2.5,0,4.7-0.5,6.6-1.4c1.9-0.9,3.7-2.3,5.4-4.2V704.6z"/>
		<path class="st3" d="M369.8,675.2l-20.4,51.3h-11.2l-20.3-51.3h10.2c0.9,0,1.7,0.2,2.3,0.6c0.6,0.4,1,1,1.2,1.7l9.9,27.4
			c0.5,1.6,1,3.2,1.4,4.7c0.4,1.5,0.8,3.1,1,4.6c0.3-1.5,0.7-3.1,1.1-4.6c0.4-1.5,0.9-3.1,1.5-4.7l10.1-27.4
			c0.2-0.7,0.6-1.2,1.2-1.7c0.6-0.4,1.3-0.6,2.1-0.6H369.8z"/>
		<path class="st3" d="M373.9,682.4c5.9-5.4,13-8.1,21.3-8.1c3,0,5.7,0.5,8,1.5c2.4,1,4.4,2.4,6,4.1c1.6,1.8,2.9,3.8,3.7,6.3
			c0.9,2.4,1.3,5.1,1.3,8v32.4h-5.6c-1.2,0-2.1-0.2-2.7-0.5c-0.6-0.3-1.1-1.1-1.5-2.1l-1.1-3.7c-1.3,1.2-2.6,2.2-3.8,3.1
			c-1.2,0.9-2.5,1.6-3.8,2.2c-1.3,0.6-2.8,1.1-4.3,1.4c-1.5,0.3-3.2,0.5-5,0.5c-2.2,0-4.2-0.3-6-0.9c-1.8-0.6-3.4-1.5-4.8-2.6
			c-1.3-1.2-2.4-2.6-3.1-4.3c-0.7-1.7-1.1-3.8-1.1-6c0-1.3,0.2-2.6,0.6-3.9c0.4-1.3,1.1-2.5,2.1-3.7c1-1.2,2.3-2.3,3.8-3.3
			c1.6-1,3.5-1.9,5.8-2.7c2.3-0.8,4.9-1.4,8-1.9c3-0.5,6.5-0.8,10.4-0.9v-3c0-3.4-0.7-6-2.2-7.6c-1.5-1.6-3.6-2.5-6.4-2.5
			c-2,0-3.7,0.2-5,0.7c-1.3,0.5-2.5,1-3.5,1.6s-1.9,1.1-2.7,1.6c-0.8,0.5-1.7,0.7-2.7,0.7c-0.9,0-1.6-0.2-2.2-0.7
			c-0.6-0.5-1.1-1-1.4-1.6L373.9,682.4z M402.2,704.6c-3.6,0.2-6.6,0.5-9,0.9c-2.4,0.4-4.4,1-5.9,1.7c-1.5,0.7-2.5,1.5-3.1,2.5
			c-0.6,0.9-1,2-1,3c0,2.2,0.6,3.7,1.9,4.7s3,1.4,5,1.4c2.5,0,4.7-0.5,6.6-1.4c1.9-0.9,3.7-2.3,5.4-4.2V704.6z"/>
		<path class="st3" d="M442.2,727.3c-4.5,0-7.9-1.3-10.3-3.8c-2.4-2.5-3.6-6-3.6-10.4v-28.6h-5.2c-0.7,0-1.2-0.2-1.7-0.7
			c-0.5-0.4-0.7-1.1-0.7-2V677l8.2-1.4l2.6-14c0.2-0.7,0.5-1.2,1-1.5c0.5-0.4,1.1-0.5,1.8-0.5h6.4v16.2h13.7v8.8h-13.7v27.8
			c0,1.6,0.4,2.8,1.2,3.8c0.8,0.9,1.9,1.3,3.2,1.3c0.8,0,1.4-0.1,1.9-0.3c0.5-0.2,1-0.4,1.4-0.6c0.4-0.2,0.7-0.4,1-0.6
			c0.3-0.2,0.6-0.3,0.9-0.3c0.4,0,0.7,0.1,0.9,0.3c0.2,0.2,0.5,0.5,0.8,0.8l3.7,6c-1.8,1.5-3.9,2.6-6.2,3.4
			C447.1,726.9,444.7,727.3,442.2,727.3z"/>
		<path class="st3" d="M461.1,682.4c5.9-5.4,13-8.1,21.3-8.1c3,0,5.7,0.5,8,1.5c2.4,1,4.4,2.4,6,4.1s2.9,3.8,3.7,6.3
			c0.9,2.4,1.3,5.1,1.3,8v32.4h-5.6c-1.2,0-2.1-0.2-2.7-0.5c-0.6-0.3-1.1-1.1-1.5-2.1l-1.1-3.7c-1.3,1.2-2.6,2.2-3.8,3.1
			c-1.2,0.9-2.5,1.6-3.8,2.2c-1.3,0.6-2.8,1.1-4.3,1.4c-1.5,0.3-3.2,0.5-5,0.5c-2.2,0-4.2-0.3-6-0.9s-3.4-1.5-4.8-2.6
			c-1.3-1.2-2.4-2.6-3.1-4.3c-0.7-1.7-1.1-3.8-1.1-6c0-1.3,0.2-2.6,0.6-3.9c0.4-1.3,1.1-2.5,2.1-3.7c1-1.2,2.3-2.3,3.8-3.3
			c1.6-1,3.5-1.9,5.8-2.7c2.3-0.8,4.9-1.4,8-1.9c3-0.5,6.5-0.8,10.4-0.9v-3c0-3.4-0.7-6-2.2-7.6c-1.5-1.6-3.6-2.5-6.4-2.5
			c-2,0-3.7,0.2-5,0.7c-1.3,0.5-2.5,1-3.5,1.6s-1.9,1.1-2.7,1.6c-0.8,0.5-1.7,0.7-2.7,0.7c-0.9,0-1.6-0.2-2.2-0.7s-1.1-1-1.5-1.6
			L461.1,682.4z M489.4,704.6c-3.6,0.2-6.6,0.5-9,0.9c-2.4,0.4-4.4,1-5.9,1.7s-2.5,1.5-3.1,2.5c-0.6,0.9-1,2-1,3
			c0,2.2,0.6,3.7,1.9,4.7s3,1.4,5,1.4c2.5,0,4.7-0.5,6.6-1.4c1.9-0.9,3.7-2.3,5.4-4.2V704.6z"/>
		<path class="st3" d="M524.7,684.1c1.6-3.1,3.5-5.5,5.7-7.2s4.8-2.6,7.8-2.6c2.4,0,4.3,0.5,5.7,1.5l-0.8,9.2
			c-0.2,0.6-0.4,1-0.7,1.3c-0.3,0.2-0.7,0.4-1.3,0.4c-0.5,0-1.2-0.1-2.2-0.2s-1.9-0.2-2.9-0.2c-1.4,0-2.6,0.2-3.6,0.6
			c-1.1,0.4-2,1-2.9,1.7c-0.9,0.8-1.6,1.7-2.2,2.7c-0.7,1.1-1.3,2.3-1.8,3.7v31.6h-12.4v-51.3h7.2c1.3,0,2.2,0.2,2.7,0.7
			s0.8,1.3,1,2.4L524.7,684.1z"/>
		<path class="st3" d="M544.6,719.7c0-1,0.2-2,0.6-3c0.4-0.9,0.9-1.7,1.6-2.4c0.7-0.7,1.5-1.2,2.4-1.6s1.9-0.6,3-0.6s2.1,0.2,3,0.6
			c0.9,0.4,1.7,0.9,2.4,1.6c0.7,0.7,1.2,1.5,1.6,2.4c0.4,0.9,0.6,1.9,0.6,3c0,1.1-0.2,2.1-0.6,3c-0.4,0.9-0.9,1.7-1.6,2.4
			c-0.7,0.7-1.5,1.2-2.4,1.6c-0.9,0.4-1.9,0.6-3,0.6s-2.1-0.2-3-0.6s-1.7-0.9-2.4-1.6c-0.7-0.7-1.2-1.5-1.6-2.4
			C544.8,721.8,544.6,720.8,544.6,719.7z"/>
		<path class="st3" d="M592.9,674.4c3.8,0,7.3,0.6,10.4,1.8c3.1,1.2,5.8,3,8,5.2c2.2,2.3,3.9,5,5.1,8.3c1.2,3.3,1.8,6.9,1.8,11
			c0,4.1-0.6,7.7-1.8,11c-1.2,3.3-2.9,6-5.1,8.3c-2.2,2.3-4.9,4.1-8,5.3c-3.1,1.2-6.6,1.8-10.4,1.8c-3.8,0-7.3-0.6-10.5-1.8
			c-3.1-1.2-5.8-3-8-5.3c-2.2-2.3-3.9-5.1-5.2-8.3c-1.2-3.3-1.8-6.9-1.8-11c0-4,0.6-7.7,1.8-11c1.2-3.3,2.9-6,5.2-8.3
			c2.2-2.3,4.9-4,8-5.2C585.6,675,589,674.4,592.9,674.4z M592.9,717.8c4.3,0,7.4-1.4,9.5-4.3c2-2.9,3.1-7.1,3.1-12.6
			c0-5.5-1-9.8-3.1-12.6c-2.1-2.9-5.2-4.4-9.5-4.4c-4.3,0-7.5,1.5-9.6,4.4c-2.1,2.9-3.1,7.1-3.1,12.6s1,9.7,3.1,12.6
			C585.3,716.3,588.5,717.8,592.9,717.8z"/>
		<path class="st3" d="M639.3,684.1c1.6-3.1,3.5-5.5,5.7-7.2s4.8-2.6,7.8-2.6c2.4,0,4.3,0.5,5.7,1.5l-0.8,9.2
			c-0.2,0.6-0.4,1-0.7,1.3c-0.3,0.2-0.7,0.4-1.3,0.4c-0.5,0-1.2-0.1-2.2-0.2s-1.9-0.2-2.9-0.2c-1.4,0-2.6,0.2-3.6,0.6
			c-1.1,0.4-2,1-2.9,1.7c-0.9,0.8-1.6,1.7-2.2,2.7c-0.7,1.1-1.3,2.3-1.8,3.7v31.6h-12.4v-51.3h7.2c1.3,0,2.2,0.2,2.7,0.7
			s0.8,1.3,1,2.4L639.3,684.1z"/>
		<path class="st3" d="M709.4,677v4.6c0,1.5-0.9,2.4-2.6,2.7l-4.6,0.8c0.7,1.8,1.1,3.7,1.1,5.8c0,2.5-0.5,4.8-1.5,6.9
			c-1,2-2.4,3.8-4.2,5.2c-1.8,1.4-3.9,2.5-6.4,3.3c-2.5,0.8-5.1,1.2-7.9,1.2c-1,0-2,0-2.9-0.2c-0.9-0.1-1.9-0.2-2.8-0.4
			c-1.6,1-2.4,2-2.4,3.2c0,1,0.5,1.8,1.4,2.3c1,0.5,2.2,0.8,3.8,1c1.6,0.2,3.3,0.3,5.3,0.4s4.1,0.2,6.2,0.3s4.2,0.5,6.2,0.9
			s3.8,1.1,5.3,2c1.6,0.9,2.8,2.1,3.8,3.7c0.9,1.6,1.4,3.5,1.4,6c0,2.3-0.6,4.5-1.7,6.6c-1.1,2.1-2.7,4-4.9,5.7
			c-2.1,1.7-4.7,3-7.8,4c-3.1,1-6.6,1.5-10.5,1.5c-3.9,0-7.2-0.4-10.1-1.1c-2.9-0.8-5.2-1.8-7.2-3c-1.9-1.2-3.3-2.7-4.2-4.3
			s-1.4-3.3-1.4-5.1c0-2.4,0.7-4.4,2.2-6c1.5-1.6,3.4-2.9,6-3.9c-1.4-0.7-2.4-1.6-3.2-2.8c-0.8-1.2-1.2-2.7-1.2-4.6
			c0-0.8,0.1-1.6,0.4-2.4c0.3-0.8,0.7-1.6,1.2-2.4c0.5-0.8,1.2-1.6,2.1-2.3c0.8-0.7,1.8-1.4,2.9-1.9c-2.6-1.4-4.6-3.3-6.1-5.6
			c-1.5-2.3-2.2-5.1-2.2-8.2c0-2.5,0.5-4.8,1.5-6.9c1-2.1,2.4-3.8,4.2-5.2c1.8-1.5,4-2.6,6.4-3.3s5.2-1.2,8.1-1.2
			c2.2,0,4.3,0.2,6.2,0.7c1.9,0.5,3.7,1.1,5.3,2H709.4z M697.1,728.8c0-1-0.3-1.8-0.9-2.5c-0.6-0.6-1.4-1.1-2.5-1.5
			c-1-0.3-2.2-0.6-3.6-0.8c-1.4-0.2-2.9-0.3-4.4-0.4c-1.5-0.1-3.1-0.2-4.8-0.2c-1.7-0.1-3.3-0.2-4.8-0.4c-1.4,0.8-2.5,1.7-3.3,2.7
			c-0.8,1-1.3,2.2-1.3,3.6c0,0.9,0.2,1.7,0.7,2.5s1.2,1.5,2.2,2c1,0.6,2.3,1,3.8,1.3c1.6,0.3,3.5,0.5,5.8,0.5c2.3,0,4.3-0.2,6-0.5
			c1.7-0.3,3-0.8,4.1-1.4c1.1-0.6,1.9-1.4,2.4-2.2C696.8,730.7,697.1,729.8,697.1,728.8z M683.1,699.6c1.5,0,2.9-0.2,4-0.6
			c1.1-0.4,2.1-1,2.8-1.7c0.8-0.7,1.3-1.6,1.7-2.7c0.4-1,0.6-2.2,0.6-3.4c0-2.5-0.8-4.5-2.3-6c-1.5-1.5-3.8-2.2-6.8-2.2
			s-5.3,0.7-6.8,2.2c-1.5,1.5-2.3,3.5-2.3,6c0,1.2,0.2,2.3,0.6,3.3c0.4,1,1,1.9,1.7,2.7s1.7,1.3,2.8,1.8
			C680.3,699.4,681.6,699.6,683.1,699.6z"/>
	</g>
</g>
<g id="icon">
	<path id="path2852" class="st3" d="M314.8,180.9c-12.6,0-24,2-34.1,5.8c-10.1,3.8-18.3,9.2-25.3,16.4c-7,7.2-12.3,15.7-15.8,25.9
		c-3.8,10.2-5.4,21.8-5.7,34.5c0,11.9,1.6,22.5,4.4,31.7c2.8,9.2,7,17.4,12,23.9c4.7,6.5,10.4,11.9,17.1,16c6.3,4.1,13,7.2,19.9,8.5
		v2.4c-9.8,2.4-19,5.5-26.9,9.9s-14.8,9.9-20.5,17.1c-5.7,6.8-10.1,15.4-13,25.2c-2.8,9.9-4.4,21.1-4.4,34.5c0,16,1.9,30,6,42.3
		c4.1,12.3,9.8,22.5,17.1,31c7.3,8.2,16.4,14.7,27.5,19.1c10.7,4.4,23.1,6.5,36.3,6.5s24.6-1.4,34.4-4.1c9.5-2.7,17.7-5.5,24.6-8.5
		v112.6h37V513.2h29.1v118.4h37V519c7,3.1,14.8,6.1,24.6,8.5c9.8,2.7,21.2,4.1,34.4,4.1c13.6,0,25.6-2,36.3-6.5
		c10.7-4.4,19.9-10.6,27.5-19.1c7.3-8.2,13-18.8,17.1-31s6-26.6,6-42.3c0-13.3-1.6-24.9-4.4-34.5c-2.8-9.9-7.3-18.4-13-25.2
		c-5.7-7.2-12.3-12.6-20.5-17.1c-7.9-4.4-17.1-7.5-26.9-9.9v-2.4c7-1.7,13.6-4.4,19.9-8.5c6.6-4.1,12.3-9.6,17.1-16
		c5.1-6.8,8.8-14.7,12-23.9c2.8-9.2,4.4-19.8,4.4-31.7c0-12.6-1.9-24.2-5.7-34.5c-3.5-10.2-8.8-18.8-15.8-25.9
		c-7-7.2-15.2-12.6-25.3-16.4c-9.8-3.8-21.2-5.8-34.1-5.8c-13.6,0-25.9,2-37.3,6.1c-11.1,4.1-20.5,10.6-28.8,20.1
		c-7.9,9.2-14.2,21.5-18.6,36.8c-3.5,12.3-5.7,26.6-6.3,43.3h-29.7c-0.6-16.7-2.8-31-6.3-43.3c-4.4-15.4-10.7-27.6-18.6-36.8
		c-7.9-9.6-17.4-16-28.8-20.1C340.7,183,328,180.9,314.8,180.9z M418.7,187.8c-3.2,0-6.3,0.7-9.5,2.4c-2.8,1.4-5.4,3.1-7.6,5.5
		c-2.2,2.4-4.1,5.1-5.4,8.5c-1.3,3.1-1.9,6.5-1.9,10.2c0,3.4,0.6,6.8,1.9,9.9c1.3,3.1,3.2,5.8,5.4,8.2c2.2,2.4,4.7,4.4,7.6,5.8
		c2.8,1.4,6,2,9.5,2c3.2,0,6.3-0.7,9.2-2c2.8-1.4,5.7-3.4,7.9-5.8c2.2-2.4,3.8-5.1,5.1-8.2c1.3-3.1,1.9-6.5,1.9-9.9
		c0-3.4-0.6-6.8-1.9-10.2c-1.3-3.1-2.8-6.1-5.1-8.5c-2.2-2.4-4.7-4.1-7.9-5.5C425,188.4,421.9,187.8,418.7,187.8z M315.1,200
		c8.2,0,15.8,1.7,22.4,4.8c6.6,3.1,12.3,8.5,17.1,16.4c4.7,7.8,8.2,18.1,10.7,31.4c2.5,13,3.5,29.7,3.5,49.5v199.2
		c-7.9,2.7-16.4,5.1-25.9,6.8c-9.5,1.7-19.6,2.4-30.3,2.4c-16.1,0-28.4-6.1-37.3-18.8c-8.8-12.6-13.3-32.1-13.3-58.3
		c0-11.9,1.3-22.5,3.8-31.7c2.5-9.6,6.3-17.4,11.7-23.9s12.3-11.6,20.9-15.4c8.5-3.8,19-5.8,31.3-6.1v-18.8
		c-10.4-0.3-19.3-2-26.5-5.1c-7.3-3.1-13.3-7.8-18-14c-4.7-6.1-7.9-13.6-10.1-22.5c-2.2-9.2-3.2-19.8-3.2-31.7
		c0-9.6,0.9-18.4,2.5-26.3c1.6-7.8,4.1-14.7,7.9-20.1c3.5-5.5,7.9-9.9,13.3-13C301.2,201.4,307.5,200,315.1,200z M525.5,200
		c7.6,0,14.2,1.7,19.6,4.4c5.4,3.1,9.8,7.2,13.3,13c3.5,5.5,6.3,12.3,7.9,20.1c1.9,7.8,2.5,16.7,2.5,26.3c0,11.9-0.9,22.5-3.2,31.7
		c-2.2,8.9-5.4,16.4-10.1,22.5c-4.7,6.1-10.4,10.9-18,14c-7.3,3.1-16.1,4.8-26.5,5.1v18.8c12.3,0.3,22.7,2.4,31.3,6.1
		c8.5,3.8,15.5,8.9,20.9,15.4s9.5,14.7,11.7,23.9c2.5,9.2,3.8,19.8,3.8,31.7c0,26.3-4.4,45.7-13.3,58.3
		c-8.8,12.6-21.2,18.8-37.3,18.8c-10.7,0-20.9-0.7-30.3-2.4c-7.6-1.4-14.8-3.1-21.5-5.1v-0.7l-3.5-0.7c-0.3,0-0.9-0.3-1.3-0.3V301.7
		c0-20.1,1.3-36.5,3.5-49.5c2.5-13,6-23.5,10.7-31.4c4.7-7.8,10.4-13.3,17.1-16.4C509.7,201.7,517.3,200,525.5,200z"/>
</g>
<g id="Ebene_5">
</g>
</svg>
